<svg width="442" height="286" viewBox="0 0 442 286" fill="none" xmlns="http://www.w3.org/2000/svg">
<g clip-path="url(#clip0_411_138)">
<path d="M183.77 173.432C183.22 173.727 182.799 173.67 182.489 173.256C182.43 173.137 182.366 173.008 182.308 172.858C182.249 172.713 182.217 172.579 182.217 172.46C182.217 172.109 182.478 171.426 182.991 170.423C183.508 169.421 184.191 168.33 185.045 167.151C186.566 164.97 187.751 163.393 188.605 162.421C189.459 161.449 190.094 160.995 190.521 161.051C190.702 161.113 190.841 161.186 190.932 161.274C191.023 161.362 191.007 161.537 190.884 161.806C190.761 162.07 190.548 162.483 190.243 163.042C189.939 163.605 189.48 164.386 188.872 165.383L188.05 166.712L188.963 165.652C189.63 164.887 190.436 164.075 191.38 163.217C192.325 162.364 193.008 161.791 193.435 161.491C194.289 160.958 194.956 160.932 195.442 161.403C195.564 161.522 195.682 161.729 195.804 162.023C195.927 162.318 196.018 162.613 196.077 162.907C196.381 163.734 196.61 164.251 196.76 164.453C196.909 164.66 197.293 164.706 197.902 164.587C198.51 164.587 199.514 164.267 200.917 163.615C202.134 163.083 202.908 162.788 203.244 162.731C203.58 162.675 203.41 162.881 202.742 163.352C201.889 164.003 200.885 164.561 199.727 165.032C198.569 165.507 197.72 165.74 197.171 165.74C196.194 165.74 195.527 165.357 195.164 164.592C194.983 164.298 194.828 163.796 194.705 163.088C194.646 162.793 194.598 162.545 194.566 162.339C194.534 162.132 194.492 162.028 194.428 162.028C194.369 161.909 194.123 161.982 193.696 162.251C193.269 162.514 192.784 162.887 192.234 163.357C191.562 164.008 190.804 164.815 189.95 165.792C189.096 166.764 188.274 167.782 187.484 168.842C186.449 170.196 185.611 171.276 184.971 172.072C184.33 172.869 183.919 173.323 183.738 173.442L183.77 173.432Z" fill="#4A93EC"/>
<path d="M224.677 163.083C224.677 163.145 224.325 163.347 223.626 163.703C222.926 164.055 222.121 164.427 221.208 164.809C220.295 165.192 219.383 165.564 218.47 165.916C217.558 166.267 216.885 166.505 216.464 166.624C215.791 166.8 215.108 166.862 214.409 166.8C213.71 166.743 213.208 166.593 212.904 166.355L212.541 165.911L211.991 166.619C211.628 167.032 211.217 167.503 210.758 168.035C210.299 168.568 209.846 169.069 209.387 169.539C208.928 170.01 208.517 170.454 208.154 170.868C207.791 171.281 207.482 171.576 207.241 171.752C205.171 173.582 203.682 174.14 202.769 173.432C202.038 172.786 201.84 171.705 202.177 170.201C202.513 168.697 203.41 166.531 204.872 163.698C205.48 162.576 205.859 161.915 206.014 161.708C206.163 161.501 206.366 161.398 206.606 161.398C207.273 161.279 207.61 161.573 207.61 162.282C207.61 162.576 207.428 163.166 207.06 164.05C206.697 164.934 206.179 166.231 205.507 167.942C205.021 169.121 204.637 170.067 204.365 170.775C204.093 171.483 204.013 171.897 204.135 172.01C204.317 172.186 204.957 171.866 206.051 171.039C207.145 170.211 208.245 169.24 209.339 168.118C210.556 166.877 211.361 166.024 211.756 165.554C212.151 165.083 212.381 164.639 212.44 164.225C212.498 164.05 212.562 163.827 212.621 163.564C212.68 163.3 212.77 163.047 212.893 162.809C213.197 162.276 213.608 161.677 214.126 160.994C214.644 160.317 215.023 159.888 215.268 159.712C215.572 159.594 215.786 159.594 215.908 159.712C216.149 159.831 216.181 160.095 215.999 160.509C215.876 160.86 215.588 161.424 215.129 162.189C214.67 162.954 214.201 163.662 213.715 164.313C213.411 164.727 213.24 165.006 213.213 165.151C213.181 165.301 213.261 165.492 213.443 165.724C213.624 165.9 214.083 165.988 214.814 165.988C215.482 165.988 216.138 165.9 216.778 165.724C217.419 165.549 218.529 165.166 220.114 164.577C223.156 163.341 224.677 162.84 224.677 163.073V163.083Z" fill="#4A93EC"/>
<path d="M231.802 162.644C232.106 162.938 232.261 163.512 232.261 164.37C232.261 165.228 232.106 166.066 231.802 166.893L231.439 167.777L231.989 167.689C232.842 167.57 233.888 167.26 235.137 166.758C236.386 166.257 237.619 165.683 238.836 165.032C239.871 164.442 240.447 164.148 240.57 164.148C240.752 164.148 240.72 164.251 240.48 164.458C240.234 164.665 239.871 164.928 239.385 165.254C238.9 165.58 238.35 165.916 237.742 166.272C237.133 166.624 236.525 166.924 235.916 167.156C234.636 167.746 233.147 168.216 231.444 168.573C231.14 168.692 230.745 169.162 230.259 169.989C228.738 172.527 227.095 174.207 225.328 175.029C224.965 175.148 224.554 175.236 224.095 175.293C223.636 175.35 223.257 175.324 222.953 175.205C222.649 175.086 222.345 174.838 222.041 174.456C221.736 174.073 221.555 173.732 221.491 173.437C221.368 172.61 221.443 171.612 221.72 170.429C221.993 169.25 222.468 168.159 223.135 167.156C223.562 166.51 224.079 165.802 224.688 165.032C225.296 164.267 225.846 163.703 226.331 163.352C226.94 162.938 227.393 162.762 227.703 162.819C228.007 162.819 228.343 162.762 228.706 162.644C229.315 162.292 229.891 162.111 230.441 162.111C231.049 162.111 231.503 162.287 231.812 162.644H231.802ZM229.977 168.749L229.155 168.573C227.634 168.278 226.721 167.632 226.417 166.629C226.417 166.453 226.385 166.365 226.326 166.365C226.145 166.427 225.899 166.779 225.595 167.425C225.045 168.19 224.666 168.811 224.453 169.281C224.239 169.751 223.978 170.341 223.679 171.049C222.766 173.763 223.466 174.585 225.782 173.525C227.063 172.879 228.215 171.7 229.251 169.989L229.982 168.749H229.977ZM231.257 164.768C231.257 164.179 231.241 163.796 231.209 163.621C231.177 163.445 231.103 163.269 230.98 163.088C230.798 162.793 230.462 162.762 229.977 163C229 163.414 228.333 163.972 227.97 164.68C227.484 165.445 227.452 166.154 227.879 166.805C228.061 167.043 228.365 167.26 228.792 167.467C229.219 167.673 229.614 167.777 229.977 167.777C230.217 167.777 230.371 167.73 230.436 167.642C230.494 167.554 230.617 167.301 230.798 166.893C230.98 166.303 231.135 165.595 231.257 164.768V164.768Z" fill="#4A93EC"/>
<path d="M242.94 168.831C242.635 169.54 242.347 170.201 242.07 170.822C241.798 171.442 241.6 171.809 241.477 171.928C241.355 172.166 241.387 172.279 241.568 172.279C241.627 172.222 241.947 172.031 242.529 171.706C243.105 171.385 243.794 170.982 244.583 170.511C245.373 170.041 246.334 169.483 247.46 168.831C248.586 168.185 249.573 167.622 250.427 167.151C251.281 166.681 252.13 166.195 252.984 165.694C253.838 165.192 254.414 164.856 254.718 164.675C255.631 164.086 256.09 163.941 256.09 164.231C256.09 164.406 255.695 164.701 254.905 165.115C254.478 165.352 253.838 165.719 252.989 166.221C252.135 166.722 251.174 167.296 250.112 167.947C249.045 168.599 247.951 169.26 246.825 169.938C245.699 170.615 244.679 171.22 243.767 171.752L240.752 173.608L239.289 176.348C237.037 180.592 235.041 183.983 233.307 186.521C231.572 189.054 229.854 191.179 228.146 192.89C226.806 194.187 225.333 195.397 223.716 196.518C222.105 197.64 220.626 198.436 219.287 198.907C218.433 199.201 217.52 199.393 216.549 199.481C215.578 199.568 214.846 199.496 214.355 199.258C214.233 199.139 214.051 199.005 213.806 198.86C213.565 198.71 213.379 198.55 213.256 198.374C212.952 198.08 212.786 197.857 212.754 197.713C212.722 197.563 212.738 197.196 212.802 196.606C212.802 196.074 212.834 195.676 212.893 195.412C212.952 195.149 213.107 194.776 213.352 194.306C213.779 193.541 214.297 192.786 214.905 192.052C215.513 191.313 216.335 190.444 217.371 189.442C218.225 188.677 219.089 187.906 219.975 187.141C220.856 186.376 221.88 185.565 223.033 184.706C224.191 183.854 225.483 182.923 226.913 181.92C228.343 180.917 230.035 179.765 231.983 178.472C233.264 177.645 234.401 176.896 235.409 176.218C236.413 175.541 237.005 175.143 237.192 175.024C237.437 174.848 237.71 174.507 238.014 174.006C238.318 173.504 238.926 172.31 239.839 170.424C240.752 168.599 241.451 167.167 241.942 166.133C242.427 165.104 242.812 164.334 243.084 163.833C243.356 163.331 243.543 163.005 243.633 162.861C243.724 162.716 243.831 162.613 243.954 162.551C244.012 162.551 244.06 162.535 244.092 162.504C244.124 162.473 244.199 162.463 244.322 162.463C244.685 162.463 244.872 162.701 244.872 163.171C244.994 163.879 244.354 165.766 242.956 168.831H242.94ZM230.98 186.785C231.588 185.839 232.245 184.779 232.944 183.6C233.643 182.422 234.299 181.3 234.908 180.24C235.516 179.18 236.018 178.265 236.413 177.5C236.808 176.735 236.978 176.322 236.914 176.26C235.516 177.144 234.31 177.909 233.307 178.56C232.303 179.206 231.22 179.914 230.067 180.685C228.909 181.45 227.874 182.158 226.961 182.809C224.954 184.164 223.14 185.508 221.528 186.836C219.916 188.165 218.438 189.473 217.099 190.77C214.724 193.246 213.539 195.19 213.539 196.606C213.539 197.609 213.998 198.23 214.91 198.462C215.396 198.581 215.764 198.638 216.004 198.638C216.245 198.638 216.677 198.576 217.285 198.462C219.415 197.992 221.747 196.679 224.271 194.528C226.796 192.373 229.037 189.798 230.985 186.79L230.98 186.785ZM248.148 156.27C247.786 156.621 247.295 156.714 246.686 156.533C246.259 156.358 246.014 156.063 245.955 155.65C245.896 155.236 246.046 154.853 246.414 154.502C246.654 154.269 246.932 154.15 247.236 154.15C247.786 154.15 248.18 154.357 248.421 154.771C248.725 155.303 248.634 155.805 248.148 156.275V156.27Z" fill="#4A93EC"/>
<path d="M257.638 168.831C256.421 171.369 256.389 172.812 257.547 173.163C258.459 173.458 260.06 172.987 262.339 171.747C264.623 170.506 267.313 168.624 270.419 166.086C271.391 165.321 272.047 164.835 272.383 164.628C272.72 164.422 272.885 164.406 272.885 164.582C272.885 164.644 272.639 164.892 272.154 165.337C271.668 165.781 271.07 166.309 270.371 166.929C269.672 167.549 268.925 168.18 268.135 168.831C267.345 169.483 266.673 170.01 266.128 170.423C265.093 171.188 264.026 171.897 262.932 172.548C261.838 173.199 260.952 173.67 260.285 173.964C259.799 174.202 259.404 174.347 259.1 174.409C258.796 174.471 258.401 174.497 257.915 174.497C257.243 174.559 256.666 174.481 256.181 174.275C255.695 174.068 255.3 173.644 254.996 172.993C254.692 172.403 254.601 171.664 254.724 170.78C254.846 169.896 255.151 168.981 255.636 168.04C256.122 167.099 256.746 166.2 257.509 165.342C258.267 164.489 259.137 163.734 260.114 163.088C260.664 162.736 261.224 162.442 261.806 162.204C262.382 161.971 262.857 161.853 263.22 161.853C263.524 161.853 263.844 162.028 264.181 162.385C264.517 162.736 264.682 163.062 264.682 163.357C264.682 163.651 264.469 164.137 264.042 164.815C263.615 165.492 263.129 166.097 262.579 166.629C260.877 168.278 259.532 168.785 258.561 168.133L258.102 167.782L257.643 168.842L257.638 168.831ZM261.288 163.879C261.106 163.998 260.893 164.189 260.648 164.453C260.402 164.716 260.162 164.985 259.916 165.249C259.671 165.512 259.457 165.766 259.276 166.004C259.094 166.241 259.004 166.386 259.004 166.448C259.004 166.567 259.201 166.567 259.596 166.448C259.991 166.329 260.434 166.153 260.92 165.916C261.528 165.564 262.137 165.089 262.745 164.499C263.353 163.91 263.658 163.471 263.658 163.171C263.658 162.871 263.599 162.726 263.476 162.726C263.295 162.788 262.974 162.917 262.515 163.124C262.056 163.331 261.646 163.579 261.283 163.874L261.288 163.879Z" fill="#4A93EC"/>
<path d="M393.674 97.2355C392.927 95.54 391.401 94.3872 389.085 93.7876C387.766 93.5394 385.819 93.4877 383.225 93.6325C381.928 93.7049 380.636 93.8289 379.35 93.9995C378.059 94.1804 376.821 94.4079 375.646 94.6819C370.838 95.7829 365.971 97.3389 361.045 99.3395C356.129 101.34 351.406 103.62 346.907 106.179C340.311 109.999 333.981 114.31 327.919 119.097C321.867 123.889 316.594 128.774 312.127 133.736C309.474 136.616 307.276 139.283 305.52 141.733C303.775 144.194 302.163 146.83 300.701 149.632L299.532 151.907L297.92 152.15C296.09 152.351 293.544 152.336 290.283 152.093C287.022 151.86 284.076 151.493 281.445 151.007C272.138 149.219 266.726 146.68 265.242 143.398C264.741 142.276 264.164 141.656 263.497 141.527C262.846 141.408 262.43 141.826 262.281 142.783C262.115 143.729 262.478 144.871 263.375 146.179C264.261 147.502 265.435 148.588 266.892 149.456C268.236 150.221 270.014 150.914 272.218 151.519C274.417 152.134 276.834 152.682 279.465 153.173C282.096 153.654 284.797 154 287.572 154.217C290.347 154.434 292.973 154.471 295.46 154.336L297.403 154.228C297.942 154.197 298.208 154.238 298.219 154.341C298.443 154.44 298.32 155.07 297.845 156.259C296.992 158.405 296.362 160.581 295.962 162.809C295.54 165.042 295.39 166.991 295.487 168.661C295.695 172.217 296.863 175.174 299.014 177.521C301.149 179.868 304.132 181.351 307.964 181.987C309.288 182.328 311.161 182.437 313.584 182.303C316.007 182.168 318.035 181.956 319.641 181.656C322.31 180.984 325.336 179.981 328.725 178.637C332.114 177.304 335.481 175.644 338.833 173.675C340.93 172.512 343.134 171.24 345.44 169.855C347.735 168.469 349.981 167.012 352.164 165.476C354.352 163.941 356.487 162.38 358.558 160.793C360.628 159.206 362.486 157.686 364.14 156.233C365.474 155.008 366.243 154.388 366.462 154.378C366.462 154.378 371.548 149.415 373.811 145.3C374.04 144.561 373.832 144.215 373.181 144.251C372.861 144.266 372.546 144.468 372.247 144.856C371.948 145.238 371.404 146.189 370.63 147.694C370.128 148.567 369.632 149.322 369.13 149.984C368.628 150.635 367.967 151.364 367.15 152.134C364.279 154.812 360.97 157.515 357.224 160.24C353.477 162.959 349.651 165.533 345.728 167.952C341.816 170.366 337.931 172.522 334.083 174.414C330.24 176.301 326.723 177.697 323.532 178.612C321.936 179.222 320.682 179.578 319.769 179.682C318.857 179.785 317.485 179.935 315.655 180.147C313.178 180.385 311.284 180.431 309.976 180.302C308.669 180.162 307.238 179.764 305.68 179.123C300.252 177.112 297.851 173.096 298.481 167.084C298.833 163.817 299.772 160.4 301.293 156.854L302.585 153.949L306.609 153.256C314.23 152 321.776 150.015 329.253 147.285C336.73 144.577 344.559 140.942 352.746 136.399C357.987 133.488 362.875 130.516 367.422 127.487C371.953 124.457 375.983 121.506 379.5 118.637C383.006 115.768 385.936 113.069 388.284 110.521C390.622 107.983 392.271 105.636 393.237 103.48C394.277 101.014 394.432 98.9362 393.68 97.2459L393.674 97.2355ZM392.356 102.42C391.406 104.669 389.608 107.233 386.955 110.112C384.303 112.992 381.069 115.974 377.242 119.066C373.416 122.162 369.125 125.233 364.38 128.272C359.62 131.312 354.667 134.134 349.517 136.724C342.264 140.482 335.449 143.506 329.088 145.796C322.715 148.087 316.322 149.829 309.885 151.018C305.813 151.664 303.764 151.886 303.753 151.679C303.748 151.571 303.913 151.193 304.255 150.547C304.597 149.896 305.04 149.141 305.584 148.267C306.134 147.399 306.694 146.505 307.297 145.579C307.889 144.654 308.439 143.863 308.946 143.207C311.455 139.81 314.609 136.264 318.398 132.532C322.187 128.81 326.248 125.176 330.598 121.63C334.942 118.089 339.473 114.765 344.234 111.674C348.983 108.577 353.61 105.915 358.141 103.671C362.662 101.438 367.246 99.5566 371.868 98.0419C376.49 96.5273 380.471 95.571 383.801 95.1781C384.127 95.0592 384.607 94.9765 385.247 94.9403C392.159 94.563 394.528 97.0546 392.351 102.426L392.356 102.42Z" fill="#4A93EC"/>
<path d="M382.088 168.749C380.871 171.287 380.839 172.729 381.997 173.081C382.91 173.375 384.511 172.905 386.79 171.664C389.074 170.424 391.764 168.542 394.87 166.004C395.841 165.239 396.498 164.753 396.834 164.546C397.17 164.339 397.335 164.324 397.335 164.499C397.335 164.561 397.09 164.81 396.604 165.254C396.119 165.699 395.521 166.226 394.822 166.846C394.123 167.467 393.375 168.097 392.586 168.749C391.796 169.4 391.123 169.927 390.579 170.341C389.544 171.106 388.476 171.814 387.382 172.465C386.288 173.117 385.402 173.587 384.735 173.882C384.249 174.12 383.854 174.264 383.55 174.326C383.246 174.388 382.851 174.414 382.366 174.414C381.693 174.476 381.117 174.399 380.631 174.192C380.145 173.985 379.75 173.561 379.446 172.91C379.142 172.321 379.051 171.581 379.174 170.697C379.297 169.814 379.601 168.899 380.087 167.958C380.572 167.017 381.197 166.117 381.96 165.259C382.718 164.406 383.588 163.652 384.564 163.005C385.114 162.654 385.674 162.359 386.256 162.122C386.832 161.889 387.307 161.77 387.67 161.77C387.975 161.77 388.295 161.946 388.631 162.302C388.967 162.654 389.133 162.98 389.133 163.274C389.133 163.569 388.919 164.055 388.492 164.732C388.065 165.409 387.58 166.014 387.03 166.547C385.327 168.196 383.983 168.702 383.011 168.051L382.552 167.699L382.093 168.759L382.088 168.749ZM385.738 163.796C385.557 163.915 385.343 164.107 385.098 164.37C384.852 164.634 384.612 164.903 384.367 165.166C384.121 165.43 383.908 165.683 383.726 165.921C383.545 166.159 383.454 166.304 383.454 166.366C383.454 166.484 383.652 166.484 384.047 166.366C384.442 166.247 384.885 166.071 385.37 165.833C385.979 165.482 386.587 165.006 387.195 164.417C387.804 163.827 388.108 163.388 388.108 163.088C388.108 162.788 388.049 162.644 387.927 162.644C387.745 162.706 387.425 162.835 386.966 163.042C386.507 163.248 386.096 163.497 385.733 163.791L385.738 163.796Z" fill="#4A93EC"/>
<path d="M400.991 164.856C400.933 164.918 400.794 165.182 400.58 165.652C400.367 166.123 400.137 166.686 399.897 167.332C399.652 167.984 399.428 168.645 399.214 169.322C399.001 170 398.835 170.548 398.712 170.961C398.286 172.672 398.195 174.026 398.44 175.029C398.803 176.327 399.871 176.534 401.637 175.65C404.071 174.409 407.145 171.612 410.859 167.249C411.345 166.603 411.895 165.967 412.503 165.347C413.111 164.727 413.474 164.417 413.597 164.417C413.901 164.184 413.688 164.623 412.957 165.745C412.348 166.629 411.601 167.601 410.72 168.666C409.835 169.726 408.938 170.759 408.025 171.762C407.113 172.765 406.2 173.665 405.287 174.461C404.375 175.257 403.612 175.862 403.003 176.275C401.114 177.454 399.593 177.779 398.44 177.247C397.773 176.895 397.223 176.244 396.797 175.303C396.129 173.479 396.556 170.589 398.077 166.634C398.745 164.923 399.689 162.949 400.906 160.71C402.123 158.472 403.404 156.404 404.743 154.517C405.656 153.22 406.616 151.984 407.62 150.801C408.623 149.622 409.584 148.588 410.496 147.704C411.409 146.82 412.263 146.112 413.053 145.58C413.843 145.047 414.515 144.727 415.059 144.608H415.331C415.94 144.608 416.244 144.959 416.244 145.667C416.244 146.138 416.015 146.83 415.561 147.745C415.102 148.66 414.526 149.689 413.826 150.842C413.127 151.99 412.332 153.199 411.452 154.466C410.571 155.732 409.669 156.926 408.756 158.048C408.33 158.58 407.812 159.154 407.203 159.775C406.595 160.395 405.971 161 405.33 161.589C404.69 162.178 404.097 162.695 403.548 163.135C402.998 163.574 402.571 163.884 402.267 164.065C402.021 164.184 401.781 164.318 401.536 164.463C401.29 164.613 401.109 164.742 400.986 164.861L400.991 164.856ZM405.832 155.923C405.469 156.394 405.069 156.999 404.647 157.738C404.22 158.477 403.809 159.196 403.414 159.904C403.019 160.612 402.683 161.232 402.411 161.76C402.139 162.292 402 162.587 402 162.644C402 162.762 402.304 162.602 402.913 162.158C403.521 161.713 404.252 161.139 405.106 160.431C406.141 159.547 407.235 158.487 408.394 157.247C409.552 156.006 410.555 154.802 411.409 153.618C412.807 151.674 413.923 149.891 414.739 148.268C415.561 146.644 415.817 145.688 415.513 145.393L415.422 145.306C415.118 145.249 414.446 145.673 413.416 146.588C412.38 147.503 411.377 148.521 410.4 149.637C409.728 150.403 408.97 151.38 408.116 152.558C407.262 153.737 406.504 154.859 405.832 155.918V155.923Z" fill="#4A93EC"/>
<path d="M423.636 162.556C423.94 162.85 424.095 163.424 424.095 164.282C424.095 165.14 423.94 165.978 423.636 166.805L423.273 167.689L423.823 167.601C424.676 167.482 425.722 167.172 426.971 166.67C428.22 166.169 429.453 165.595 430.67 164.944C431.705 164.355 432.281 164.06 432.404 164.06C432.586 164.06 432.554 164.163 432.313 164.37C432.068 164.577 431.705 164.841 431.219 165.166C430.734 165.492 430.184 165.828 429.576 166.185C428.967 166.536 428.359 166.836 427.75 167.068C426.47 167.658 424.981 168.128 423.278 168.485C422.974 168.604 422.579 169.074 422.093 169.901C420.572 172.439 418.929 174.12 417.162 174.941C416.799 175.06 416.388 175.148 415.929 175.205C415.47 175.262 415.091 175.236 414.787 175.117C414.483 174.998 414.179 174.75 413.875 174.368C413.57 173.985 413.389 173.644 413.325 173.349C413.202 172.522 413.277 171.524 413.554 170.341C413.827 169.162 414.302 168.071 414.969 167.068C415.396 166.422 415.913 165.714 416.522 164.944C417.13 164.179 417.68 163.615 418.165 163.264C418.774 162.85 419.227 162.675 419.537 162.731C419.841 162.731 420.177 162.675 420.54 162.556C421.149 162.204 421.725 162.023 422.275 162.023C422.883 162.023 423.337 162.199 423.646 162.556H423.636ZM421.811 168.661L420.989 168.485C419.468 168.19 418.555 167.544 418.251 166.541C418.251 166.365 418.219 166.278 418.16 166.278C417.979 166.34 417.733 166.691 417.429 167.337C416.879 168.102 416.5 168.723 416.287 169.193C416.073 169.664 415.812 170.253 415.513 170.961C414.6 173.675 415.3 174.497 417.616 173.437C418.897 172.791 420.049 171.612 421.085 169.901L421.816 168.661H421.811ZM423.091 164.68C423.091 164.091 423.075 163.708 423.043 163.533C423.011 163.357 422.937 163.181 422.814 163C422.632 162.706 422.296 162.675 421.811 162.912C420.834 163.326 420.167 163.884 419.804 164.592C419.318 165.357 419.286 166.066 419.713 166.717C419.895 166.955 420.199 167.172 420.626 167.379C421.053 167.585 421.448 167.689 421.811 167.689C422.051 167.689 422.205 167.642 422.269 167.554C422.328 167.467 422.451 167.213 422.632 166.805C422.814 166.216 422.969 165.507 423.091 164.68V164.68Z" fill="#4A93EC"/>
<path d="M174.046 194.064C174.046 194.064 174.068 194.053 174.079 194.042L174.052 194.069H174.046V194.064Z" fill="#4A93EC"/>
<path d="M222.521 30.2304C234.598 36.4957 245.544 44.9424 254.457 55.033C255.791 56.5476 258.406 59.6234 259.682 61.1793C266.491 69.4917 272.869 78.2176 277.704 87.7757C284.909 101.929 289.91 118.177 290.337 133.705C286.142 107.729 276.327 82.1411 259.276 61.4947C252.258 53.5028 244.039 46.3071 235.639 39.7162C231.38 36.4336 226.961 33.3372 222.436 30.3596L222.516 30.2252L222.521 30.2304Z" fill="#4A93EC"/>
<path d="M254.494 240.029C231.487 265.405 198.681 281.663 164.023 285.173C110.02 291.097 56.1652 264.65 28.2107 219.724C-25.8465 133.995 29.5449 22.7503 132.808 11.264C143.679 10.0905 154.935 10.1061 165.795 11.3674C168.106 11.7137 171.047 12.0394 173.336 12.4736C177.275 13.156 181.902 14.1588 185.734 15.1462C186.945 15.4925 189.395 16.1904 190.606 16.5367C191.215 16.697 192.432 17.0743 193.024 17.2863C196.813 18.5011 201.237 20.1553 204.883 21.6596C207.007 22.6417 209.686 23.7635 211.767 24.8077C213.304 25.6038 217.024 27.4337 218.465 28.3022C219.548 28.9277 221.747 30.1787 222.83 30.8042C224.352 31.683 227.66 33.9006 229.187 34.8414L229.096 34.9707C226.609 33.4302 223.044 31.1815 220.482 29.8323C219.735 29.4188 217.91 28.4159 217.184 28.0179C216.549 27.6767 212.312 25.6348 211.548 25.2471C209.462 24.2494 206.767 23.169 204.637 22.2282C202.284 21.3391 199.935 20.4293 197.566 19.5918C196.653 19.2713 192.4 17.9273 191.578 17.6533C190.825 17.4465 188.717 16.8727 187.933 16.6556C107.063 -5.04534 24.7204 45.3508 10.2521 125.409C-1.76655 192.672 39.2954 257.941 106.625 278.256C140.296 288.574 177.899 286.176 209.83 271.552C220.493 266.77 230.542 260.531 239.674 253.371C244.861 249.199 249.755 244.697 254.371 239.925L254.489 240.029H254.494Z" fill="#4A93EC"/>
<path d="M242.587 239.357C204.898 277.171 146.785 290.332 95.5459 273.247C48.2131 257.336 13.2833 218.571 3.03647 171.111C-7.25302 122.943 8.95506 74.0872 46.2918 40.7604C86.0782 5.4795 144.17 -4.761 194.278 14.6138C238.499 31.7554 271.556 69.3314 280.885 115.659C281.568 119.329 282.278 123.486 282.673 127.182C283.254 132.33 283.479 137.51 283.511 142.679H283.35C283.212 132.387 281.942 122.007 279.449 111.989C269.688 71.4664 240.639 37.3279 202.924 20.0313C156.872 -1.73175 100.376 3.27736 59.0096 32.4997C57.1097 33.7714 54.8202 35.5962 52.9736 36.9506C51.6501 37.9121 48.5333 40.657 47.1938 41.7115L43.522 45.0871C42.4386 46.028 40.971 47.5271 39.957 48.5661C38.9056 49.6155 37.47 51.0577 36.4987 52.1485C35.8529 52.8825 32.9497 56.1237 32.3733 56.8009C29.5074 60.3109 26.6842 63.9398 24.1011 67.6514C11.0258 86.7263 2.86035 109.048 1.00846 131.891C-2.43383 171.504 12.6162 211.096 41.7181 239.119C98.0008 293.015 186.283 292.456 242.587 239.352V239.357Z" fill="#4A93EC"/>
<path d="M262.793 220.83C238.521 252.74 199.348 273.19 158.5 275.454C76.7976 280.784 7.45028 216.131 8.02132 137.159C8.36288 47.7286 94.7669 -17.3691 184.368 4.13023C241.184 17.7722 284.215 65.1235 290.534 121.542C282.673 66.4158 242.839 21.1633 186.913 6.39441C92.9791 -18.2428 1.45163 54.852 9.05668 148.945C10.503 166.577 15.4876 183.957 23.7971 199.718C48.4428 247.716 103.317 277.713 158.425 274.188C200.245 271.753 236.995 252.213 262.798 220.835L262.793 220.83Z" fill="#4A93EC"/>
<path d="M50.4814 144.954C42.9511 143.284 40.7523 140.095 43.8904 135.38C45.6142 132.796 49.1846 130.366 54.5962 128.086C60.0077 125.807 65.8516 124.137 72.1278 123.072C81.2218 121.557 89.0724 122.198 95.6581 125.011C102.249 127.823 106.871 132.496 109.545 139.03C109.859 139.79 110.094 140.322 110.249 140.627C110.404 140.932 110.799 141.123 111.423 141.196C112.048 141.273 112.992 141.273 114.246 141.196C115.501 141.123 117.459 140.932 120.128 140.627C122.166 140.322 124.322 140.095 126.601 139.945C128.875 139.795 130.641 139.64 131.895 139.49L136.133 139.263L137.782 136.755C138.252 135.846 139.074 134.403 140.253 132.423C141.432 130.449 142.681 128.205 144.021 125.698C145.35 123.191 146.727 120.648 148.141 118.063C149.555 115.483 150.809 113.126 151.909 110.996C153.323 108.262 154.887 105.109 156.616 101.537C158.34 97.9697 159.946 94.6251 161.44 91.508C162.929 88.396 164.146 85.7338 165.085 83.5316C166.025 81.3295 166.414 80.1509 166.265 80.001C165.95 79.8511 164.733 81.2571 162.62 84.2192C160.501 87.1812 158.11 90.7532 155.442 94.9301C152.773 99.1121 150.148 103.33 147.559 107.58C144.971 111.834 143.124 115.101 142.03 117.381C141.246 118.9 140.696 119.852 140.381 120.229C140.066 120.611 139.517 120.725 138.732 120.57C137.003 120.115 136.613 118.745 137.553 116.466C137.867 115.556 138.967 113.54 140.845 110.428C142.729 107.316 144.923 103.93 147.436 100.286C149.945 96.636 152.453 93.0329 154.967 89.4609C157.475 85.894 159.514 83.1905 161.083 81.3709C163.276 78.7862 164.968 77.1165 166.142 76.3566C167.316 75.5967 168.143 75.6742 168.613 76.584C169.238 77.6489 167.674 82.4771 163.906 91.0582C160.144 99.6445 154.727 110.624 147.671 123.997C145.472 127.952 143.669 131.369 142.26 134.253C140.845 137.143 140.141 138.663 140.141 138.813C140.296 138.968 141.043 139.004 142.377 138.927C143.706 138.854 145.238 138.735 146.967 138.585C148.691 138.435 151.204 138.322 154.497 138.244C157.79 138.167 160.768 138.053 163.436 137.903C164.851 137.903 166.222 137.867 167.556 137.789C168.885 137.712 170.027 137.676 170.967 137.676C172.061 137.676 173.085 137.603 174.025 137.448C174.025 137.298 174.884 135.892 176.613 133.23C178.337 130.573 180.296 127.27 182.494 123.315C183.588 121.34 184.805 119.288 186.139 117.158C187.468 115.034 188.728 112.981 189.902 111.002C191.081 109.027 192.175 107.207 193.195 105.532C194.214 103.863 195.116 102.493 195.901 101.428C197.785 98.5435 199.941 95.2713 202.374 91.6269C204.802 87.9773 207.119 84.5242 209.317 81.2571C211.511 77.9901 213.512 75.1418 215.316 72.707C217.12 70.2774 218.412 68.6801 219.201 67.9202C219.671 67.3154 220.221 67.0104 220.85 67.0104C221.48 67.0104 221.945 67.2378 222.265 67.6927C222.42 67.9977 222.462 68.3027 222.382 68.6025C222.302 68.9075 221.987 69.5123 221.443 70.4273C220.893 71.3371 220.109 72.5933 219.089 74.1906C218.065 75.7879 216.618 77.8764 214.734 80.461C210.497 86.2404 206.692 91.6682 203.319 96.76C199.946 101.852 196.69 106.83 193.552 111.689C192.293 113.819 190.847 116.171 189.197 118.756C187.548 121.34 185.979 123.811 184.49 126.163C182.996 128.521 181.704 130.645 180.605 132.548C179.506 134.45 178.876 135.623 178.721 136.078L178.017 137.215C185.387 137.371 190.761 137.598 194.134 137.898C197.507 138.203 199.7 138.544 200.725 138.921C201.744 139.304 202.022 139.759 201.547 140.291C201.077 140.824 200.762 141.397 200.608 142.002C200.448 142.307 199.978 142.307 199.193 142.002C198.879 141.852 198.446 141.739 197.902 141.661C197.352 141.589 196.37 141.511 194.961 141.434C193.547 141.361 191.588 141.32 189.08 141.32H179.431L175.428 141.547L172.84 145.879C167.348 155.608 162.524 164.308 158.366 171.979C154.209 179.651 150.558 187.058 147.426 194.202C145.857 197.697 144.405 201.191 143.071 204.686C141.737 208.18 140.6 211.37 139.661 214.26C138.721 217.144 138.012 219.501 137.542 221.326C137.072 223.151 136.992 224.211 137.307 224.516C137.777 224.516 138.636 224.211 139.895 223.606C142.873 222.236 143.343 222.768 141.31 225.203C139.271 227.633 137.387 228.543 135.663 227.938C133.779 227.328 132.605 226.035 132.136 224.061C131.666 222.086 132.018 219.046 133.192 214.942C134.366 210.837 136.523 205.596 139.666 199.217C142.804 192.833 146.961 184.934 152.138 175.51C157 167.001 161.12 159.821 164.493 153.969C167.866 148.123 170.177 144.132 171.436 142.002C171.436 141.852 170.337 141.775 168.143 141.775C165.95 141.775 163.239 141.816 160.026 141.889C156.808 141.966 153.515 142.044 150.142 142.116C146.769 142.194 144.058 142.307 142.025 142.457L137.787 142.685L135.903 145.874C134.964 147.849 133.315 150.966 130.961 155.22C128.608 159.475 126.217 163.884 123.783 168.438C121.35 172.998 119.076 177.175 116.958 180.974C114.839 184.768 113.547 187.131 113.072 188.041C111.034 191.23 109.385 193.055 108.13 193.51C106.561 194.115 105.382 193.582 104.603 191.912C103.973 190.848 103.898 188.837 104.368 185.875C104.837 182.913 105.932 177.557 107.661 169.803C108.13 167.678 108.52 165.926 108.835 164.561C109.15 163.191 109.342 161.904 109.422 160.684C109.497 159.47 109.577 158.291 109.657 157.154C109.731 156.011 109.774 154.61 109.774 152.935V148.035C109.774 146.438 109.694 145.492 109.539 145.187C109.224 144.427 109.027 143.972 108.952 143.817C108.872 143.667 108.44 143.667 107.661 143.817C105.307 144.122 102.484 144.385 99.1911 144.613C95.8982 144.84 92.4826 145.068 88.9549 145.295C85.4273 145.523 81.9316 145.678 78.484 145.75C75.031 145.828 72.0477 145.941 69.5394 146.091H64.3626C62.4787 146.091 60.6322 146.055 58.8336 145.978C57.0298 145.9 55.3807 145.786 53.8917 145.636C52.3974 145.486 51.2606 145.259 50.4814 144.954V144.954ZM44.3654 137.205C43.5808 138.575 43.5008 139.79 44.1305 140.855C45.2246 142.374 47.6956 143.439 51.5435 144.044C55.386 144.654 61.1498 144.804 68.8403 144.499C75.1111 144.499 81.3873 144.272 87.6688 143.817C93.9396 143.362 100.376 142.757 106.967 141.992C107.906 141.687 108.381 141.387 108.381 141.082C108.381 140.777 107.831 139.562 106.732 137.433C103.749 131.508 98.8869 127.482 92.1411 125.352C90.2571 124.747 88.4533 124.328 86.7295 124.096C85.0003 123.868 83.0417 123.832 80.8482 123.982H78.7295C76.2158 124.137 74.2572 124.287 72.8483 124.437C71.434 124.592 69.3953 124.969 66.7322 125.574C61.7102 126.794 57.0031 128.5 52.6108 130.702C48.2186 132.904 45.4701 135.07 44.376 137.2L44.3654 137.205ZM111.669 145.636C111.978 147.156 112.138 149.968 112.138 154.073C112.138 155.748 112.096 157.19 112.021 158.405C111.941 159.625 111.823 160.912 111.669 162.282C111.509 163.652 111.274 165.244 110.964 167.069C110.649 168.893 110.26 171.173 109.785 173.908C109 177.402 108.451 180.292 108.136 182.571C107.821 184.851 107.821 185.988 108.136 185.988C108.451 185.683 108.76 185.228 109.075 184.618C109.39 184.164 109.699 183.709 110.014 183.249C110.329 182.794 110.639 182.184 110.954 181.424C111.738 180.204 113.072 178.043 114.956 174.926C116.84 171.809 118.719 168.655 120.603 165.466C123.271 161.062 125.465 157.412 127.194 154.528C128.917 151.643 130.289 149.363 131.314 147.689C132.333 146.019 133.155 144.422 133.785 142.902C133.785 142.752 133.39 142.674 132.605 142.674C131.506 142.674 129.819 142.716 127.546 142.788C125.272 142.866 122.919 142.979 120.485 143.129C118.052 143.284 115.933 143.398 114.129 143.47C112.325 143.548 111.343 143.662 111.188 143.812L111.658 145.636H111.669Z" fill="#4A93EC"/>
<path d="M337.749 209.235H340.829C336.49 215.123 331.484 220.514 325.811 225.208C319.47 230.326 312.335 235.108 304.01 236.462C289.061 238.555 284.877 225.213 290.881 214.032L291.372 214.239C289.6 218.912 288.746 224.428 290.988 228.997C296.559 239.129 310.435 232.781 317.741 227.87C325.48 222.758 332.114 216.389 337.749 209.235V209.235Z" fill="#4A93EC"/>
<path d="M373.57 144.732C372.241 152.015 361.594 180.199 353.979 185.28H352.068C354.128 183 354.838 181.434 356.119 179.361C359.15 174.45 371.852 149.715 373.053 144.644L373.576 144.732H373.57Z" fill="#4A93EC"/>
<path d="M247.108 196.648C247.108 192.657 250.262 189.679 254.542 189.679C258.822 189.679 261.955 192.636 261.955 196.648C261.955 200.659 258.785 203.616 254.542 203.616C250.299 203.616 247.108 200.644 247.108 196.648ZM260.461 196.648C260.461 193.381 257.936 190.972 254.542 190.972C251.148 190.972 248.581 193.381 248.581 196.648C248.581 199.915 251.127 202.324 254.542 202.324C257.958 202.324 260.461 199.915 260.461 196.648Z" fill="#4A93EC"/>
<path d="M276.728 188.976V203.497H275.356V201.46C274.486 202.851 273.013 203.595 271.257 203.595C268.226 203.595 265.963 201.46 265.963 198.348C265.963 195.236 268.226 193.122 271.257 193.122C272.954 193.122 274.411 193.825 275.297 195.159V188.976H276.733H276.728ZM275.313 198.348C275.313 195.939 273.616 194.337 271.375 194.337C269.133 194.337 267.415 195.939 267.415 198.348C267.415 200.757 269.112 202.36 271.375 202.36C273.638 202.36 275.313 200.752 275.313 198.348Z" fill="#4A93EC"/>
<path d="M291.682 193.205L286.953 203.497H285.48L280.773 193.205H282.267L286.249 201.972L290.267 193.205H291.682V193.205Z" fill="#4A93EC"/>
<path d="M291.602 206.728L292.109 205.674C292.53 206.025 293.101 206.201 293.763 206.201C294.894 206.201 295.519 205.534 295.519 204.262V193.205H296.954V204.262C296.954 206.159 295.866 207.395 293.843 207.395C292.994 207.395 292.125 207.178 291.602 206.728V206.728ZM295.199 189.959C295.199 189.431 295.663 188.982 296.25 188.982C296.837 188.982 297.301 189.411 297.301 189.938C297.301 190.507 296.858 190.956 296.25 190.956C295.642 190.956 295.199 190.507 295.199 189.959V189.959Z" fill="#4A93EC"/>
<path d="M312.234 198.783H303.343C303.503 200.938 305.2 202.365 307.527 202.365C308.818 202.365 309.971 201.915 310.777 201.016L311.583 201.915C310.633 203.011 309.16 203.601 307.479 203.601C304.164 203.601 301.902 201.409 301.902 198.354C301.902 195.299 304.106 193.127 307.094 193.127C310.083 193.127 312.244 195.262 312.244 198.354C312.244 198.473 312.223 198.628 312.223 198.783H312.234ZM303.343 197.744H310.878C310.697 195.728 309.181 194.322 307.1 194.322C305.018 194.322 303.524 195.733 303.343 197.744Z" fill="#4A93EC"/>
<path d="M322.801 202.872C322.235 203.363 321.387 203.595 320.559 203.595C318.558 203.595 317.448 202.499 317.448 200.602V194.378H315.548V193.205H317.448V190.956H318.884V193.205H322.118V194.378H318.884V200.525C318.884 201.74 319.529 202.401 320.725 202.401C321.312 202.401 321.899 202.226 322.299 201.874L322.806 202.872H322.801Z" fill="#4A93EC"/>
<path d="M337.205 197.532V203.502H335.769V197.671C335.769 195.5 334.595 194.384 332.578 194.384C330.294 194.384 328.858 195.753 328.858 198.1V203.502H327.423V193.21H328.794V195.107C329.563 193.856 330.998 193.133 332.834 193.133C335.423 193.133 337.2 194.58 337.2 197.537L337.205 197.532Z" fill="#4A93EC"/>
<path d="M342.803 189.959C342.803 189.431 343.268 188.982 343.855 188.982C344.442 188.982 344.906 189.411 344.906 189.938C344.906 190.507 344.463 190.956 343.855 190.956C343.246 190.956 342.803 190.507 342.803 189.959V189.959ZM343.129 193.205H344.565V203.497H343.129V193.205Z" fill="#4A93EC"/>
<path d="M358.083 200.855L359.155 201.558C358.307 202.887 356.791 203.595 354.993 203.595C351.823 203.595 349.517 201.424 349.517 198.348C349.517 195.273 351.823 193.122 354.993 193.122C356.791 193.122 358.307 193.804 359.155 195.159L358.083 195.862C357.357 194.823 356.226 194.337 354.993 194.337C352.671 194.337 350.974 195.939 350.974 198.348C350.974 200.757 352.671 202.36 354.993 202.36C356.226 202.36 357.357 201.889 358.083 200.85V200.855ZM353.899 191.618L351.294 189.193H352.628L354.63 190.796L356.631 189.193H357.965L355.361 191.618H353.904H353.899Z" fill="#4A93EC"/>
<path d="M367.759 198.333L365.256 200.561V203.497H363.82V188.976H365.256V198.819L371.601 193.2H373.378L368.831 197.408L373.8 203.492H372.044L367.759 198.328V198.333Z" fill="#4A93EC"/>
<path d="M377.499 189.959C377.499 189.431 377.963 188.982 378.55 188.982C379.137 188.982 379.601 189.411 379.601 189.938C379.601 190.507 379.158 190.956 378.55 190.956C377.941 190.956 377.499 190.507 377.499 189.959V189.959ZM377.824 193.205H379.26V203.497H377.824V193.205Z" fill="#4A93EC"/>
<path d="M402.171 193.205V203.497H400.799V201.621C400.052 202.872 398.675 203.595 396.978 203.595C394.272 203.595 392.495 202.127 392.495 199.17V193.2H393.931V199.031C393.931 201.223 395.105 202.339 397.122 202.339C399.342 202.339 400.741 200.949 400.741 198.602V193.2H402.176L402.171 193.205Z" fill="#4A93EC"/>
<path d="M413.57 193.127V194.477C413.448 194.477 413.325 194.456 413.229 194.456C411.003 194.456 409.653 195.826 409.653 198.25V203.497H408.218V193.205H409.589V195.221C410.256 193.851 411.612 193.127 413.57 193.127V193.127Z" fill="#4A93EC"/>
<path d="M427.329 198.783H418.438C418.598 200.938 420.295 202.365 422.622 202.365C423.913 202.365 425.066 201.915 425.872 201.016L426.678 201.915C425.728 203.011 424.255 203.601 422.574 203.601C419.259 203.601 416.997 201.409 416.997 198.354C416.997 195.299 419.201 193.127 422.189 193.127C425.178 193.127 427.339 195.262 427.339 198.354C427.339 198.473 427.318 198.628 427.318 198.783H427.329ZM418.438 197.744H425.973C425.792 195.728 424.276 194.322 422.195 194.322C420.113 194.322 418.619 195.733 418.438 197.744Z" fill="#4A93EC"/>
<path d="M442 188.976V203.497H440.628V201.46C439.759 202.851 438.286 203.595 436.524 203.595C433.493 203.595 431.23 201.46 431.23 198.348C431.23 195.236 433.493 193.122 436.524 193.122C438.222 193.122 439.678 193.825 440.564 195.159V188.976H442ZM440.586 198.348C440.586 195.939 438.889 194.337 436.647 194.337C434.406 194.337 432.687 195.939 432.687 198.348C432.687 200.757 434.384 202.36 436.647 202.36C438.91 202.36 440.586 200.752 440.586 198.348Z" fill="#4A93EC"/>
</g>
<defs>
<clipPath id="clip0_411_138">
<rect width="442" height="286" fill="white"/>
</clipPath>
</defs>
</svg>
